<svg xmlns="http://www.w3.org/2000/svg" viewBox="0 0 2444 612" width="2444" height="612" fill="none">
<path d="M 409.500 121.747 C 394.364 122.496, 374.477 133.336, 359.144 149.194 C 347.075 161.677, 341.342 173.157, 336.019 195.500 C 331.663 213.782, 329.716 217.753, 319.837 228.500 C 315.793 232.900, 308.668 240.775, 304.004 246 C 299.340 251.225, 290.886 259.974, 285.218 265.441 C 274.824 275.466, 272.891 278.982, 277.311 279.825 C 281.162 280.559, 286.713 276.248, 303.303 259.641 C 323.053 239.869, 330.531 233.957, 344.500 227.064 C 356.833 220.978, 358.466 220.627, 358.598 224.033 C 359.032 235.248, 364.645 244, 371.406 244 C 375.376 244, 375.484 242.085, 371.733 238.160 C 366.559 232.744, 366 231.041, 366 220.688 C 366 205.983, 370.399 197.969, 378.437 198.032 C 388.593 198.111, 392.762 208.694, 390.124 227.703 C 388.832 237.014, 388.854 238.127, 390.374 240.448 C 392.499 243.692, 398.018 246, 403.650 246 C 407.796 246, 408.439 245.596, 414.590 239.125 C 420.960 232.424, 424.781 229.942, 434 226.519 C 441.014 223.915, 447.434 219.378, 452.506 213.442 C 455.063 210.449, 457.567 208, 458.071 208 C 459.068 208, 463.044 213.414, 467 220.159 C 472.206 229.035, 480.072 236, 484.891 236 C 487.916 236, 488.110 237.226, 486 243.001 C 481.480 255.365, 471.457 266.887, 466.500 265.415 C 463.036 264.386, 451.577 262.075, 449.750 262.037 C 448.788 262.017, 448 262.605, 448 263.345 C 448 265.443, 451.045 267.639, 456.482 269.463 C 459.223 270.382, 461.698 271.508, 461.982 271.964 C 462.267 272.421, 462.275 278.451, 462 285.366 C 461.385 300.837, 460.679 302.031, 453.287 300.111 C 442.747 297.373, 443.424 297.200, 440.615 303.341 C 437.654 309.815, 435.891 311, 429.219 311 C 422.796 311, 420.538 313.026, 417.440 321.567 C 414.236 330.400, 413.420 331.301, 409.329 330.534 C 403.537 329.447, 398.231 325.854, 390.188 317.571 C 376.474 303.449, 370.104 291.540, 366.849 273.935 C 366.143 270.121, 365.214 267, 364.783 267 C 364.352 267, 364 271.426, 364 276.835 C 364 287.500, 366.045 295.842, 370.581 303.678 C 371.912 305.976, 373 308.228, 373 308.683 C 373 309.138, 370.192 310.599, 366.760 311.930 C 358.560 315.109, 350.931 322.559, 349.081 329.192 C 347.420 335.147, 348.483 340.228, 354.687 356 C 370.230 395.518, 374.740 420.888, 373.841 463.743 C 373.481 480.892, 374.566 484.729, 376.624 473.586 C 378.135 465.412, 380.022 448.503, 380.010 443.250 C 379.997 437.887, 380.788 437.949, 384.363 443.590 C 387.360 448.317, 400.899 458.165, 413.781 464.986 C 418.416 467.440, 421.391 470.002, 425.129 474.758 C 427.915 478.304, 431.498 481.946, 433.091 482.852 C 437.603 485.419, 436.614 486.540, 428.250 488.344 C 414.383 491.334, 405.283 492, 378.260 492 C 363.236 492, 348.885 492.484, 345.277 493.112 C 341.765 493.724, 338.664 493.997, 338.387 493.720 C 338.109 493.443, 338.423 487.467, 339.084 480.440 C 342.233 446.941, 332.858 407.948, 317.655 391.313 C 310.272 383.235, 308.945 384.159, 314.293 393.654 C 325.472 413.502, 328 428.232, 328 473.519 C 328 491.933, 328.128 507, 328.285 507 C 328.441 507, 331.254 506.041, 334.535 504.868 C 345.930 500.796, 353.231 500.003, 379.500 499.984 C 411.583 499.960, 422.971 498.145, 448.500 488.991 C 466.482 482.542, 474.689 477.019, 478.175 469.017 C 481.146 462.200, 494.862 450.125, 506 444.523 C 512.303 441.353, 526.616 439.288, 537.905 439.921 C 542.306 440.168, 532.700 445.891, 512.764 454.897 C 508.106 457.002, 505.881 460.380, 507.465 462.943 C 507.864 463.590, 512.851 464.010, 520.309 464.026 C 549.758 464.088, 570.121 469.051, 568.785 475.841 C 568.495 477.316, 566.846 477.459, 553.896 477.126 C 539.046 476.744, 535 477.467, 535 480.500 C 535 482.821, 537.984 483.662, 547 483.880 C 556.657 484.113, 561.589 485.364, 562.960 487.925 C 565.234 492.175, 558.613 495.905, 548.500 496.071 C 545.750 496.117, 541.700 496.696, 539.500 497.359 C 534.700 498.805, 534.112 501.384, 538.500 501.751 C 551.397 502.827, 553.886 503.260, 554.364 504.507 C 555.346 507.066, 551.161 510.621, 543.825 513.458 C 532.177 517.962, 530.830 520, 539.500 520 C 543.794 520, 545 520.339, 545 521.545 C 545 524.133, 540.682 527.601, 534.650 529.858 C 529.293 531.862, 527.103 532, 500.588 532 C 468.734 532, 471.163 531.571, 452.500 540.487 C 431.761 550.394, 423.184 554.212, 415.500 556.959 C 388.310 566.678, 377.678 569.019, 351.500 571.051 C 343.250 571.692, 335.862 572.407, 335.083 572.641 C 329.979 574.171, 346.796 578.006, 358.500 577.982 C 373.649 577.950, 395.946 573.115, 413.500 566.055 C 422.291 562.519, 428.596 559.597, 452.500 547.980 C 473.467 537.791, 471.714 538.104, 477.041 543.597 C 481.723 548.426, 493.056 556.496, 499 559.233 C 523.755 570.630, 548.314 574.824, 559.330 569.535 C 573.415 562.773, 593.724 532.773, 606.742 499.500 C 613.008 483.485, 614.797 477.739, 621.536 452 C 623.635 443.981, 624.242 443.092, 631.322 437.669 C 638.812 431.932, 642.159 427.799, 651.703 412.500 C 663.382 393.779, 665.262 392.469, 683.200 390.560 C 701.220 388.641, 707.754 385.476, 720.233 372.620 L 726.977 365.672 731.164 367.054 C 736.524 368.823, 745.967 368.885, 749.174 367.172 C 755.215 363.945, 756.968 354.728, 752.354 350.452 C 748.357 346.748, 742.447 347.112, 733.313 351.625 L 725.976 355.250 722.058 352.657 C 717.734 349.795, 713.786 344.444, 709.663 335.852 C 705.220 326.594, 704.166 321.375, 703.043 303.071 C 701.504 278.010, 699.641 273.021, 688.446 264 C 672.392 251.063, 669.039 246.258, 662.973 227.500 C 654.663 201.799, 651.717 195.971, 642 186.006 C 624.555 168.115, 597.889 155.914, 576.500 156.037 C 561.784 156.121, 540.013 164.887, 519.547 178.967 C 517.123 180.635, 514.925 182, 514.662 182 C 514.400 182, 507.731 175.565, 499.843 167.700 C 482.730 150.639, 482.224 150.208, 468.547 141.032 C 445.407 125.506, 430.688 120.699, 409.500 121.747 M 409.500 129.584 C 400.520 131.745, 397.699 132.671, 392 135.331 C 366.837 147.077, 351.851 165.846, 345.158 194 C 344.569 196.475, 343.348 201.650, 342.444 205.500 C 341.540 209.350, 340.331 213.073, 339.758 213.774 C 337.300 216.778, 340.695 216.171, 348.389 212.232 C 354.065 209.325, 358.858 205.836, 363.710 201.079 C 369.672 195.234, 371.462 194.053, 375.209 193.491 C 383.736 192.213, 389.980 197.231, 395.708 209.967 C 397.818 214.658, 398.167 216.928, 398.167 225.959 C 398.167 241.037, 399.426 241.430, 411.452 230.103 C 419.722 222.313, 427.472 218, 433.200 218 C 436.727 218, 443.379 213.443, 448.356 207.617 C 453.864 201.170, 455.793 200.330, 460.224 202.448 C 463.268 203.903, 469.262 211.824, 472.837 219.116 C 475.066 223.663, 480.806 229.735, 483.519 230.416 C 489.541 231.927, 500.349 221.844, 506.781 208.716 C 517.391 187.058, 513.393 179.583, 478.880 156.550 C 458.912 143.225, 445.151 135.714, 434.058 132.088 C 427.826 130.051, 413.590 128.599, 409.500 129.584 M 567.500 164.723 C 553.181 168.236, 534.474 177.762, 522.250 187.764 C 518.637 190.720, 518 191.798, 518 194.955 C 518 200.954, 514.219 210.766, 508.831 218.751 C 503.349 226.875, 503.270 227.561, 506.639 237.970 C 512.198 255.144, 522.974 268.308, 537.196 275.298 C 549.653 281.421, 556.453 283.157, 577 285.464 C 593.931 287.365, 601.406 289.268, 611.007 294.124 C 624.440 300.918, 631.786 309.228, 636.064 322.469 C 638.493 329.988, 638.444 333.720, 635.570 360 C 633.689 377.198, 635.442 387.593, 641.587 395.689 C 644.661 399.738, 643.136 400.853, 639.474 397.234 C 632.424 390.269, 630.939 382.994, 630.038 351 C 629.145 319.293, 628.095 315.268, 617.905 304.493 C 610.134 296.277, 599.088 291.680, 582.018 289.560 C 565.395 287.495, 566.675 289.827, 584.500 294.082 C 601.928 298.241, 613.603 306.150, 619.981 318.115 C 624.937 327.415, 625.997 335.074, 625.999 361.601 C 626 385.755, 626.359 388.341, 630.667 395.230 C 633.356 399.529, 633.461 400, 631.734 400 C 629.708 400, 624.299 390.878, 622.191 383.908 C 619.032 373.460, 618.003 366.075, 617.947 353.440 C 617.798 319.452, 609.561 308.142, 579 299.960 C 552.541 292.876, 537.097 285.942, 524.562 275.520 C 510.442 263.781, 503.327 253.526, 499.571 239.500 C 497.585 232.083, 496.509 235.100, 496.184 249 C 495.487 278.750, 501.165 288, 520.122 288 C 529.319 288, 529.865 288.861, 523.304 293.022 C 518.213 296.251, 515.533 296.655, 511.475 294.807 C 508.147 293.290, 507.420 294.336, 506.544 301.904 C 506.188 304.982, 505.413 310.080, 504.822 313.232 C 503.371 320.968, 504.984 323.603, 511.731 324.520 C 519.311 325.550, 519.549 325.725, 521.582 331.762 L 523.513 337.500 529.498 338 C 534.161 338.390, 535.556 338.886, 535.815 340.250 C 535.997 341.212, 535.712 342, 535.180 342 C 532.318 342, 533.365 345.205, 536.971 347.481 C 539.314 348.961, 541.541 351.464, 542.525 353.726 C 545.454 360.459, 545.503 360.503, 550.146 360.452 C 559.441 360.350, 576.168 349.686, 596.690 330.781 C 601.322 326.514, 604 324.962, 604 326.544 C 604 327.176, 599.165 332.634, 590 342.348 C 572.358 361.045, 551.147 372.234, 543.858 366.687 C 542.241 365.457, 538.793 358.690, 537.501 354.212 C 537.138 352.953, 535.141 350.798, 533.064 349.423 C 530.986 348.049, 528.811 345.880, 528.229 344.604 C 527.581 343.182, 525.960 342.042, 524.038 341.658 C 521.427 341.135, 520.508 340.136, 518.533 335.670 C 516.193 330.380, 516.084 330.293, 510.390 329.149 C 500.423 327.148, 500 326.301, 500 308.334 L 500 293.017 496.393 288.291 C 494.409 285.692, 492.383 282.508, 491.892 281.216 C 490.542 277.666, 488.005 264.900, 487.974 261.500 L 487.946 258.500 485.130 261.896 C 483.580 263.764, 479.880 266.721, 476.906 268.466 C 471.542 271.615, 471.494 271.686, 470.779 277.570 C 468.168 299.031, 466.830 303.950, 463.055 305.970 C 460.300 307.445, 454.511 307.240, 450.401 305.523 L 446.867 304.046 444.911 308.468 C 442.123 314.771, 438.886 317, 432.520 317 C 426.059 317, 424.978 318.096, 421.021 328.651 C 417.306 338.560, 407.468 339.020, 394 329.914 C 390.975 327.868, 386.721 324.351, 384.547 322.097 C 380.944 318.363, 380.148 318, 375.547 318.004 C 365.728 318.011, 356 326.845, 356 335.753 C 356 337.133, 357.374 342.366, 359.054 347.381 C 362.195 356.761, 362.425 357.366, 365.775 365 C 371.356 377.721, 377.012 397.187, 378.267 408 C 378.548 410.421, 378.615 410.392, 380.398 407.068 C 382.311 403.502, 382.312 403.619, 380.348 382.349 C 378.403 361.293, 400.182 339.884, 426 337.474 C 448.224 335.399, 471.729 347.516, 479.824 365.221 C 481.011 367.817, 482.545 374.073, 483.233 379.123 C 484.452 388.074, 484.564 388.338, 487.706 389.650 C 491.881 391.395, 493.314 394.181, 492.504 398.975 C 492.019 401.845, 492.389 403.843, 493.985 406.971 C 496.770 412.429, 495.427 420.305, 490.819 425.554 C 488.077 428.676, 487.971 429.043, 489.652 429.602 C 490.668 429.940, 493.333 431.033, 495.574 432.030 C 499.469 433.765, 512.053 436, 517.924 436 C 519.612 436, 521.868 434.887, 523.670 433.165 C 525.679 431.245, 528.670 429.879, 532.939 428.932 C 543.942 426.491, 541.731 421.977, 529.559 422.031 C 524.127 422.055, 521.348 422.629, 517.500 424.522 C 514.750 425.875, 512.163 426.986, 511.750 426.991 C 510.206 427.010, 511.084 424.914, 513.500 422.813 C 516.596 420.121, 516.670 418.996, 513.750 419.014 C 509.246 419.041, 507.364 420.216, 504.058 425.061 C 500.367 430.470, 498 431.423, 498 427.500 C 498 426.125, 497.550 425, 497 425 C 495.241 425, 495.927 422.416, 498.250 420.287 C 505.434 413.705, 510.486 413.066, 529.659 416.317 C 540.858 418.215, 542.188 419.005, 545.467 425.701 C 546.894 428.615, 548.422 431, 548.862 431 C 550.157 431, 552.689 424.973, 557.679 410.015 C 563.040 393.941, 574.071 376, 578.593 376 C 580.742 376, 580.289 377.349, 577.120 380.385 C 572.488 384.823, 569.618 391.491, 565.450 407.500 C 561.799 421.525, 558.241 431.853, 555.953 435.067 C 554.879 436.575, 554 438.302, 554 438.904 C 554 441.272, 556.796 439.639, 563.500 433.356 C 576.385 421.281, 575.886 421.527, 584.480 422.997 C 588.567 423.696, 593.236 425.073, 594.856 426.058 C 598.527 428.291, 603.489 435.395, 605.195 440.859 C 606.730 445.780, 607.832 445.965, 612.288 442.052 C 615.452 439.274, 616.288 437.425, 618.921 427.384 C 621.651 416.971, 618.931 404.158, 612.752 398.328 C 610.964 396.641, 607.025 393.700, 604 391.793 C 592.244 384.382, 588.632 377.596, 587.480 360.750 C 586.897 352.217, 587.012 351, 588.407 351 C 589.321 351, 590 351.833, 590 352.953 C 590 354.027, 590.410 355.940, 590.912 357.203 C 591.414 358.466, 592.848 362.200, 594.100 365.500 C 597.552 374.600, 600.557 378.477, 607.816 383.196 C 616.071 388.561, 624.469 396.852, 626.624 401.764 C 627.810 404.465, 628.295 408.754, 628.379 417.250 C 628.442 423.712, 628.797 429, 629.167 429 C 630.302 429, 639.510 416.189, 644.539 407.613 C 656.920 386.499, 660.527 383.940, 680.598 382.037 C 696.089 380.568, 705.054 376.528, 716.066 366.052 L 720.153 362.164 712.142 354.023 C 698.210 339.863, 694 327.974, 694 302.785 C 694 283.655, 690.330 274.355, 679.476 265.981 C 671.384 259.738, 665.307 252.733, 662.411 246.309 C 658.297 237.181, 658.186 236.892, 655.969 229.500 C 654.814 225.650, 653.449 221.466, 652.935 220.203 C 652.421 218.940, 652 217.263, 652 216.478 C 652 211.718, 641.085 193.192, 634.851 187.371 C 626.127 179.226, 610.284 170.787, 595.500 166.410 C 587.806 164.133, 573.435 163.266, 567.500 164.723 M 887 225.470 C 855.458 231.513, 832.969 255.051, 824.871 290.500 C 823.055 298.449, 823.038 325.607, 824.844 333 C 832.901 365.978, 851.643 386.221, 882 394.734 C 889.766 396.912, 913.411 396.850, 921.500 394.630 C 948.498 387.223, 967.371 366.448, 976.126 334.500 C 978.816 324.682, 979.415 297.263, 977.142 288 C 970.676 261.655, 956.600 243.180, 934.549 232.100 C 920.254 224.916, 902.679 222.466, 887 225.470 M 889 233.423 C 870.806 238.453, 858.195 254.479, 853.134 279 C 847.096 308.259, 849.704 338.807, 860.108 360.695 C 866.979 375.149, 877.407 384.453, 890.852 388.126 C 914.347 394.544, 935.755 380.588, 945.502 352.500 C 949.251 341.698, 951.981 324.211, 951.983 311 C 951.984 298.489, 948.301 275.771, 945.092 268.500 C 935.847 247.548, 927.843 238.951, 913.065 234.100 C 905.839 231.727, 896.122 231.454, 889 233.423 M 1815.384 241.018 C 1798.135 249.385, 1788.827 268.060, 1787.731 296.500 L 1787.500 302.500 1781 303 C 1774.556 303.496, 1774.500 303.526, 1774.500 306.500 L 1774.500 309.500 1781.250 309.796 L 1788 310.091 1788 345.871 L 1788 381.651 1785.686 383.826 C 1784.413 385.022, 1782.417 386, 1781.251 386 C 1777.382 386, 1774 387.854, 1774 389.975 C 1774 391.947, 1774.577 392, 1796.070 392 L 1818.139 392 1817.820 389.750 C 1817.557 387.904, 1816.562 387.320, 1812.275 386.497 C 1802.598 384.640, 1803.060 386.650, 1802.972 345.997 L 1802.895 310.500 1814.198 310 L 1825.500 309.500 1825.811 306.283 L 1826.122 303.067 1814.811 302.783 L 1803.500 302.500 1803.500 284 C 1803.500 261.465, 1804.387 257.634, 1811.202 250.750 C 1815.288 246.623, 1816.441 246, 1819.999 246 C 1823.555 246, 1824.317 246.411, 1825.797 249.126 C 1829.566 256.043, 1831.902 258.002, 1836.339 257.968 C 1841.411 257.929, 1843.293 256.604, 1845.005 251.865 C 1849.147 240.401, 1830.632 233.621, 1815.384 241.018 M 2145.470 241.858 C 2142.703 242.802, 2137.753 244.160, 2134.470 244.875 C 2126.952 246.512, 2125.500 247.268, 2125.500 249.544 C 2125.500 250.899, 2126.789 251.697, 2130.500 252.639 C 2133.516 253.404, 2136.393 254.940, 2137.750 256.510 L 2140 259.112 2140 319.122 C 2140 388.103, 2140.451 384.983, 2130.250 386.567 C 2126.622 387.131, 2126 387.576, 2126 389.614 L 2126 392 2146.917 392 C 2168.735 392, 2169.894 391.764, 2167.830 387.750 C 2167.206 386.537, 2165.735 386, 2163.037 386 C 2160.024 386, 2158.677 385.405, 2157.073 383.365 C 2155.020 380.756, 2155 380.037, 2155 310.365 L 2155 240 2152.750 240.070 C 2151.512 240.109, 2148.236 240.913, 2145.470 241.858 M 2089.094 242.331 C 2081.513 244.933, 2078.681 256.135, 2084.206 261.661 C 2090.157 267.612, 2100.461 265.079, 2102.859 257.076 C 2105.762 247.388, 2098.141 239.224, 2089.094 242.331 M 277.500 289.100 C 266.600 291.549, 252.609 301.516, 242.215 314.237 C 230.694 328.337, 225.172 340.739, 221.040 361.799 C 218.766 373.386, 220.896 396.396, 225.987 415.250 C 226.544 417.313, 227.397 420.462, 227.881 422.250 C 228.366 424.038, 229.432 427.525, 230.250 430 C 231.069 432.475, 232.536 437.200, 233.510 440.500 C 236.809 451.666, 241.014 461.756, 250.596 481.500 C 271.095 523.737, 294.103 552.915, 319.664 569.086 C 325.779 572.955, 323.839 569.269, 317.038 564.099 C 295.256 547.540, 272.346 514.614, 255.738 476 C 254.910 474.075, 253.333 470.475, 252.232 468 C 247.911 458.278, 239.250 430.550, 236.147 416.500 C 226.477 372.715, 229.152 346.804, 245.885 322.171 C 252.523 312.400, 268.171 298.880, 281.469 291.429 C 283.790 290.128, 284.678 287.961, 282.833 288.100 C 282.100 288.156, 279.700 288.605, 277.500 289.100 M 1174.759 296.370 C 1167.740 298.975, 1159.853 305.447, 1154.867 312.693 C 1153.237 315.062, 1151.476 317, 1150.952 317 C 1150.409 317, 1150 312.438, 1150 306.387 L 1150 295.773 1147.250 296.287 C 1145.737 296.570, 1140.005 298.421, 1134.510 300.400 C 1129.016 302.380, 1123.750 304, 1122.807 304 C 1119.333 304, 1116 306.272, 1116 308.641 C 1116 311.035, 1116.416 311.230, 1124.179 312.474 C 1126.202 312.799, 1128.902 313.909, 1130.179 314.942 C 1132.494 316.816, 1132.501 316.897, 1132.818 345.160 C 1132.992 360.747, 1132.851 375.421, 1132.504 377.769 C 1131.763 382.773, 1128.945 385.106, 1122.620 385.950 C 1119.031 386.429, 1118.459 386.855, 1118.184 389.250 L 1117.867 392 1142.875 392 C 1158.615 392, 1168.113 391.626, 1168.506 390.991 C 1169.963 388.633, 1167.892 386, 1164.582 386 C 1160.578 386, 1155.112 384.246, 1152.750 382.203 C 1150.198 379.997, 1150.089 330.696, 1152.625 325.700 C 1158.419 314.285, 1171.469 305.601, 1173.450 311.842 C 1175.648 318.769, 1187.076 321.151, 1191.499 315.604 C 1195.962 310.006, 1195.202 301.696, 1189.864 297.736 C 1186.480 295.225, 1179.536 294.597, 1174.759 296.370 M 1015 297.982 C 1011.425 298.964, 1004.900 300.403, 1000.500 301.180 C 993.588 302.402, 992.457 302.889, 992.185 304.762 C 991.947 306.402, 992.494 307.059, 994.435 307.465 C 995.846 307.759, 998.068 308.219, 999.374 308.487 C 1000.679 308.755, 1002.817 309.840, 1004.124 310.897 L 1006.500 312.819 1007.033 344.160 L 1007.566 375.500 1010.320 381.267 C 1019.454 400.392, 1045.309 400.328, 1065.860 381.130 C 1069.052 378.149, 1071.219 377.803, 1070.908 380.325 C 1070.502 383.617, 1071.134 392.663, 1071.849 393.790 C 1072.670 395.084, 1076.532 394.676, 1088.500 392.032 C 1102.633 388.908, 1103.500 388.559, 1103.500 385.986 C 1103.500 383.766, 1102.949 383.433, 1098 382.663 C 1094.789 382.163, 1091.564 380.942, 1090.250 379.729 L 1088 377.651 1088 337.385 C 1088 315.238, 1087.651 296.902, 1087.224 296.638 C 1086.797 296.375, 1083.310 296.980, 1079.474 297.983 C 1075.638 298.986, 1068.315 300.368, 1063.200 301.055 C 1054.741 302.191, 1053.928 302.488, 1054.200 304.343 C 1054.490 306.316, 1055.011 306.551, 1063.222 308.408 C 1064.720 308.747, 1066.857 310.004, 1067.972 311.201 C 1069.908 313.278, 1070 314.633, 1070 341.096 L 1070 368.815 1065.039 373.275 C 1058.476 379.175, 1053.802 381.301, 1046.276 381.810 C 1038.544 382.331, 1036.002 381.714, 1031.991 378.339 C 1026.607 373.809, 1026.538 373.290, 1026 333.500 C 1025.426 291.026, 1026.594 294.797, 1015 297.982 M 1864 301.391 C 1849.250 304.159, 1840 312.252, 1840 322.392 C 1840 326.069, 1840.484 327.236, 1842.750 329.018 C 1846.126 331.674, 1851.610 331.150, 1854.250 327.920 C 1856.217 325.512, 1856.586 318.964, 1854.929 315.867 C 1852.148 310.671, 1862.906 304.820, 1871.156 307.042 C 1880.421 309.537, 1883.557 316.353, 1882.818 332.389 L 1882.500 339.279 1877 340.673 C 1862.008 344.474, 1849.376 350.118, 1843.854 355.484 C 1832.009 366.993, 1833.885 385.008, 1847.736 392.750 C 1848.966 393.438, 1853.134 394, 1856.997 394 C 1865.199 394, 1870.947 391.787, 1878.179 385.845 C 1883.416 381.542, 1884 381.317, 1884 383.596 C 1884 385.362, 1887.567 390.819, 1889.963 392.718 C 1892.103 394.415, 1901.519 394.300, 1904.931 392.536 C 1907.656 391.126, 1913.016 385.561, 1912.985 384.173 C 1912.920 381.320, 1911.007 380.565, 1908.138 382.259 C 1904.569 384.367, 1903.113 384.399, 1900.500 382.427 C 1898.593 380.987, 1898.477 379.437, 1898 349.208 C 1897.512 318.284, 1897.441 317.380, 1895.106 312.637 C 1892.311 306.960, 1886.105 302.490, 1879.672 301.521 C 1877.377 301.176, 1874.375 300.731, 1873 300.532 C 1871.625 300.334, 1867.575 300.721, 1864 301.391 M 1940 301.972 C 1937.525 302.962, 1933.475 304.330, 1931 305.010 C 1920.004 308.034, 1919.872 308.098, 1920.193 310.306 C 1920.421 311.872, 1921.521 312.630, 1924.450 313.235 C 1932.326 314.864, 1932 313.274, 1932 350.040 L 1932 382.770 1929.517 384.397 C 1928.151 385.292, 1925.338 386.377, 1923.267 386.807 C 1920.462 387.390, 1919.500 388.089, 1919.500 389.545 C 1919.500 391.412, 1920.414 391.512, 1939.822 391.771 L 1960.145 392.042 1959.822 389.799 C 1959.575 388.075, 1958.573 387.367, 1955.500 386.740 C 1947.157 385.038, 1947.537 386.523, 1947.205 354.325 L 1946.911 325.733 1949.423 321.937 C 1953.854 315.241, 1960.339 311.614, 1967.966 311.566 C 1975.694 311.517, 1979.118 313.351, 1982.058 319.113 C 1983.853 322.631, 1984 325.189, 1984 352.805 C 1984 386.486, 1984.306 385.158, 1976.250 386.479 C 1972.617 387.075, 1972 387.526, 1972 389.588 L 1972 392 1992.070 392 L 2012.139 392 2011.820 389.794 C 2011.581 388.143, 2010.461 387.324, 2007.379 386.544 C 1999.625 384.580, 2000 386.281, 2000 353.058 L 2000 323.360 2003.564 319.197 C 2012.845 308.353, 2029.416 308.645, 2034.683 319.744 C 2036.193 322.927, 2036.416 327.058, 2036.455 352.653 C 2036.506 385.663, 2036.762 384.542, 2028.736 386.478 C 2025.490 387.261, 2024.425 388.026, 2024.180 389.750 L 2023.861 392 2043.930 392 L 2064 392 2064 389.607 C 2064 387.108, 2062.353 386, 2058.641 386 C 2057.433 386, 2055.445 385.299, 2054.223 384.443 C 2052.013 382.895, 2052 382.721, 2051.988 353.693 C 2051.975 322.039, 2051.374 317.186, 2046.564 309.918 C 2037.827 296.714, 2017.259 297.609, 2003.357 311.798 C 1998.805 316.444, 1998.089 316.856, 1997.547 315.150 C 1995.290 308.037, 1986.604 301.427, 1977.997 300.273 C 1970.447 299.260, 1957.045 305.483, 1951.010 312.804 C 1947.573 316.974, 1947.173 316.433, 1946.774 307.079 C 1946.623 303.548, 1946.050 300.549, 1945.500 300.415 C 1944.950 300.281, 1942.475 300.981, 1940 301.972 M 2097.817 300.516 C 2097.113 301.220, 2081.404 305.634, 2076.697 306.451 C 2069.787 307.650, 2070.591 311.447, 2078.114 313.137 C 2086.393 314.997, 2086 313.179, 2086 349.665 C 2086 386.492, 2086.466 384.538, 2077.220 386.504 C 2073.448 387.306, 2072.435 387.963, 2072.178 389.773 L 2071.856 392.039 2093.678 391.770 C 2114.743 391.509, 2115.500 391.431, 2115.500 389.500 C 2115.500 387.972, 2114.557 387.304, 2111.500 386.670 C 2109.300 386.213, 2106.375 385.296, 2105 384.632 L 2102.500 383.425 2101.972 341.962 C 2101.682 319.158, 2101.344 300.387, 2101.222 300.250 C 2100.819 299.796, 2098.343 299.990, 2097.817 300.516 M 2171.388 304.431 C 2170.600 306.486, 2171.754 308, 2174.109 308 C 2177.175 308, 2181.449 310.574, 2182.686 313.165 C 2185.296 318.633, 2188 325.034, 2187.996 325.739 C 2187.993 326.386, 2196.006 347.263, 2199.227 355 C 2199.799 356.375, 2200.597 358.400, 2201 359.500 C 2201.403 360.600, 2202.201 362.625, 2202.773 364 C 2204.731 368.702, 2213.837 392.497, 2214.254 394 C 2214.681 395.542, 2212.187 403.422, 2209.030 410.500 C 2208.049 412.700, 2206.362 416.525, 2205.281 419 C 2200.747 429.384, 2195.031 432.661, 2191.094 427.132 C 2183.604 416.613, 2168.846 426.001, 2174.948 437.403 C 2178.331 443.725, 2189.890 444.763, 2197.884 439.463 C 2203.189 435.946, 2212 425.328, 2212 422.452 C 2212 421.310, 2212.900 418.513, 2214 416.236 C 2215.100 413.959, 2216 411.490, 2216 410.748 C 2216 410.007, 2216.381 408.973, 2216.847 408.450 C 2217.313 407.928, 2219.155 403.675, 2220.942 399 C 2222.729 394.325, 2224.555 389.600, 2225 388.500 C 2226.114 385.746, 2231.768 370.684, 2234.197 364 C 2235.296 360.975, 2236.559 357.600, 2237.004 356.500 C 2238.858 351.920, 2241.327 345.157, 2243.028 340 C 2246.135 330.583, 2250.681 318.518, 2252.309 315.369 C 2254.297 311.525, 2255.792 310.314, 2260.605 308.647 C 2263.291 307.717, 2264.500 306.709, 2264.500 305.399 C 2264.500 303.622, 2263.449 303.482, 2248.177 303.225 L 2231.854 302.950 2232.177 305.211 C 2232.422 306.927, 2233.345 307.613, 2236 308.051 C 2244.703 309.489, 2245.460 311.580, 2241.464 323.154 C 2240.069 327.194, 2236.428 337.925, 2233.373 347 C 2230.318 356.075, 2227.449 363.950, 2226.999 364.500 C 2226.549 365.050, 2225.774 367.075, 2225.277 369 C 2224.780 370.925, 2223.951 372.334, 2223.436 372.131 C 2222.591 371.798, 2217.039 358.367, 2211.808 344 C 2210.706 340.975, 2209.399 337.488, 2208.903 336.250 C 2208.406 335.012, 2207.594 332.988, 2207.097 331.750 C 2206.601 330.512, 2205.212 326.800, 2204.010 323.500 C 2202.808 320.200, 2201.389 316.412, 2200.857 315.083 C 2199.537 311.781, 2202.238 309.196, 2208.045 308.205 C 2211.555 307.606, 2212.500 307.026, 2212.500 305.472 C 2212.500 303.583, 2211.647 303.489, 2192.227 303.229 C 2175.121 303.001, 2171.865 303.189, 2171.388 304.431 M 419.935 343.950 C 402.625 347.103, 388.030 363.722, 388.006 380.307 C 387.999 385.050, 389.891 393.108, 391.381 394.682 C 392.549 395.916, 403.522 396.811, 404.574 395.759 C 404.907 395.427, 405.360 392.582, 405.582 389.438 C 406.022 383.217, 406.910 381.615, 411.128 379.434 C 420.046 374.822, 429.500 381.864, 429.196 392.892 C 429.049 398.199, 429.280 398.824, 432.519 401.879 C 435.605 404.790, 436.727 407.771, 436.083 411.355 C 435.721 413.372, 438.525 415.001, 442.372 415.008 C 451.541 415.024, 465.213 418.314, 475.397 422.953 C 479.305 424.733, 480.648 424.903, 483.902 424.026 C 488.913 422.677, 490.200 420.999, 489.815 416.320 C 489.527 412.826, 489.180 412.421, 485.750 411.574 C 481.566 410.540, 480.636 408, 484.441 408 C 487.645 408, 488.537 406.372, 486.954 403.414 C 485.859 401.368, 485.929 400.736, 487.434 399.073 C 489.627 396.649, 488.854 395.326, 484.145 393.441 C 479.166 391.449, 478.097 389.367, 476.832 379.194 C 475.151 365.690, 469.459 357.483, 456.713 350.190 C 447.401 344.862, 430.587 342.009, 419.935 343.950 M 1874 346.886 C 1858.852 351.783, 1851.667 358.864, 1851.667 368.893 C 1851.667 381.950, 1861.254 387.651, 1873.517 381.887 C 1882.232 377.790, 1883 375.971, 1883 359.423 C 1883 342.997, 1883.570 343.792, 1874 346.886 M 737.250 356.161 C 734.913 357.294, 733 358.826, 733 359.564 C 733 360.949, 738.784 362.985, 742.750 362.994 C 744.983 363, 749 359.843, 749 358.082 C 749 353.538, 744.257 352.762, 737.250 356.161 M 414.329 383.504 C 410.828 384.976, 410 386.626, 410 392.131 C 410 397.023, 411.734 400.456, 416.500 405 C 418.519 406.925, 420.819 409.738, 421.611 411.250 C 422.811 413.541, 423.709 414, 426.990 414 C 435.064 414, 434.528 406.764, 426.188 403.176 C 421.675 401.235, 416 396.126, 416 394.005 C 416 389.727, 419.468 388.739, 421.194 392.526 C 422.687 395.804, 424.417 395.179, 424.810 391.219 C 425.442 384.842, 420.245 381.016, 414.329 383.504 M 465.750 387.392 C 463.577 389.042, 463.477 391, 465.566 391 C 468.034 391, 471 389.071, 471 387.465 C 471 385.652, 468.096 385.611, 465.750 387.392 M 398.940 403.060 C 397.807 404.193, 395.502 408.097, 393.818 411.735 C 390.051 419.873, 390.315 425.494, 394.886 434.500 C 396.561 437.800, 399.250 443.425, 400.862 447 C 404.483 455.033, 407.574 458.011, 416.383 461.955 C 421.309 464.160, 425.433 467.116, 430.883 472.349 C 443.946 484.891, 445.161 485.390, 454.117 481.905 C 465.884 477.325, 468.197 475.497, 475.082 465.344 C 477.750 461.409, 480.478 458.007, 481.144 457.785 C 484.634 456.622, 480.298 455.561, 473.847 456 C 463.576 456.699, 455.833 455.637, 449.728 452.690 C 438.245 447.150, 431.719 446.608, 431.193 451.150 C 430.773 454.779, 435.682 460.181, 442.566 463.667 C 450.092 467.477, 449.858 469.446, 441.964 468.730 C 432.675 467.888, 426 461.740, 426 454.026 C 426 452.135, 424.620 448.946, 422.415 445.740 C 416.581 437.259, 415.859 434.677, 416.118 423.225 C 416.369 412.146, 415.648 410.048, 412.221 411.882 C 406.924 414.716, 403.839 425.672, 405.992 434 C 410.522 451.522, 408.311 456.263, 403.255 439.868 C 398.896 425.730, 399.135 418.174, 404.175 410.846 C 406.573 407.358, 406.524 403.351, 404.066 402.035 C 401.479 400.651, 401.317 400.683, 398.940 403.060 M 387.228 406.250 C 379.241 418.086, 379.871 429.109, 389.179 440.401 C 394.804 447.225, 395.704 443.998, 390.790 434.624 C 386.763 426.940, 386.312 417.071, 389.688 410.500 C 390.819 408.300, 392.056 405.488, 392.439 404.250 C 393.645 400.351, 390.358 401.612, 387.228 406.250 M 430.500 419.668 C 425.267 420.538, 421 424.572, 421 428.650 C 421 433.676, 423.819 439.305, 425.889 438.414 C 437.248 433.525, 440.129 433.996, 444.034 441.384 C 448.075 449.027, 454.206 452.033, 465.616 451.964 C 475.611 451.904, 496.052 445.540, 495.974 442.514 C 495.947 441.500, 466.829 426.998, 455.500 422.357 C 449.456 419.881, 437.170 418.559, 430.500 419.668 M 582 429.750 C 582 432.329, 584.766 445.099, 585.479 445.812 C 585.815 446.149, 586.931 445.900, 587.958 445.258 C 588.985 444.617, 592.115 443.788, 594.913 443.417 C 599.220 442.846, 599.999 442.417, 599.996 440.621 C 599.991 437.449, 596.444 432.241, 592.759 429.995 C 588.536 427.420, 582 427.271, 582 429.750 M 567.903 435.664 C 564.106 439.329, 561 442.823, 561 443.427 C 561 444.481, 568.675 450.931, 575.753 455.825 C 580.417 459.051, 582.429 457.427, 581.685 451.039 C 580.122 437.611, 577.872 429, 575.928 429 C 575.310 429, 571.699 431.999, 567.903 435.664 M 530.750 433.080 C 527.607 434.911, 528.893 435.822, 535.250 436.269 C 538.688 436.511, 542.513 437.052, 543.750 437.471 C 546.914 438.543, 546.757 435.726, 543.535 433.615 C 540.790 431.816, 533.448 431.509, 530.750 433.080 M 430.250 440.944 C 426.592 443.995, 427.454 444.966, 433.250 444.324 C 439.388 443.644, 440.828 442.702, 439.035 440.542 C 437.303 438.456, 432.996 438.652, 430.250 440.944 M 536.007 447.467 C 532.986 449.942, 528.156 452.987, 525.274 454.234 C 517.069 457.782, 518.432 458.688, 532.250 458.866 C 562.156 459.254, 574.400 463.877, 574.400 474.781 C 574.400 477.520, 573.688 478.897, 571.200 480.974 C 568.313 483.384, 568 484.183, 568 489.134 C 568 494.960, 566.141 498.186, 562.034 499.489 C 560.439 499.995, 560 500.991, 560 504.103 C 560 508.868, 557.970 512.237, 553.397 515.064 C 550.392 516.921, 550 517.657, 550 521.434 C 550 526.469, 546.960 531.551, 542.500 533.972 C 536.022 537.487, 531.523 538, 507.134 538 C 493.363 538, 483 538.389, 483 538.907 C 483 540.758, 492.996 548.096, 500.129 551.482 C 510.143 556.234, 522.383 559.620, 541.917 563.042 C 550.422 564.532, 555.580 563.082, 561.859 557.437 C 569.923 550.187, 587.279 522.417, 593.383 507 C 595.297 502.164, 596.564 499.194, 599.884 491.761 C 601.048 489.154, 602 486.143, 602 485.070 C 602 483.996, 602.450 482.840, 603 482.500 C 603.550 482.160, 604 481.318, 604 480.630 C 604 479.242, 582.512 467.821, 581.606 468.727 C 581.293 469.041, 581.302 470.355, 581.627 471.648 C 582.688 475.878, 578.634 474.643, 577.047 470.254 C 574.334 462.750, 552.296 444.469, 544.687 443.410 C 542.050 443.043, 540.551 443.744, 536.007 447.467 M 591.523 448.565 C 584.760 452.091, 585.792 455.933, 592.596 452.561 C 594.193 451.770, 596.737 450.656, 598.250 450.086 C 599.763 449.516, 601 448.588, 601 448.025 C 601 446.465, 594.881 446.814, 591.523 448.565 M 597.764 454.874 C 587.524 459.068, 584.025 460.945, 584.014 462.250 C 584.006 463.212, 584.404 464, 584.898 464 C 585.392 464, 588.654 465.716, 592.148 467.814 C 600.262 472.686, 604.864 474.542, 605.984 473.394 C 606.464 472.902, 608.198 468, 609.839 462.500 C 611.479 457, 613.135 451.712, 613.518 450.750 C 614.530 448.205, 613.190 448.556, 597.764 454.874 M 1040 543.690 C 1033.112 545.042, 1028 552.205, 1028 560.506 C 1028 570.232, 1034.434 576.521, 1044.327 576.465 C 1055.015 576.404, 1060.500 570.820, 1060.500 560 C 1060.500 553.016, 1058.533 548.890, 1053.693 545.718 C 1051.074 544.002, 1043.857 542.933, 1040 543.690 M 1213.692 543.701 C 1209.222 544.406, 1202.358 551.716, 1201.545 556.637 C 1199.968 566.193, 1205.825 575.251, 1214.415 576.540 C 1226.467 578.347, 1234.317 571.779, 1234.328 559.878 C 1234.339 548.396, 1225.896 541.777, 1213.692 543.701 M 1361.140 543.674 C 1357.186 544.502, 1350.028 552.438, 1349.820 556.224 C 1349.048 570.307, 1354.061 576.545, 1366.070 576.446 C 1376.844 576.357, 1382.323 570.814, 1382.323 560 C 1382.323 553.650, 1380.291 549.055, 1376.192 546.137 C 1373.297 544.076, 1365.394 542.782, 1361.140 543.674 M 2021.604 543.990 C 2017.268 545.360, 2013.244 549.751, 2011.493 555.021 C 2006.335 570.550, 2024.557 583.251, 2037.762 573.331 C 2046.145 567.033, 2045.840 552.295, 2037.200 546.142 C 2033.894 543.788, 2025.785 542.669, 2021.604 543.990 M 979.953 544.250 C 979.928 544.388, 979.846 551.475, 979.772 560 C 979.641 575.109, 979.692 575.508, 981.772 575.813 C 983.749 576.104, 983.928 575.625, 984.203 569.313 L 984.500 562.500 992.250 562.208 L 1000 561.916 1000 569.024 L 1000 576.133 1002.750 575.816 L 1005.500 575.500 1005.500 560 L 1005.500 544.500 1003 544.500 C 1000.641 544.500, 1000.472 544.867, 1000 551 L 999.500 557.500 993.776 557.799 C 985.300 558.242, 984 557.200, 984 549.965 C 984 544.667, 983.776 544, 982 544 C 980.900 544, 979.979 544.112, 979.953 544.250 M 1083 560 L 1083 576 1093.073 576 C 1102.127 576, 1103.113 575.823, 1102.814 574.250 C 1102.547 572.842, 1101.115 572.402, 1095.491 572 L 1088.500 571.500 1088.222 557.750 L 1087.944 544 1085.472 544 L 1083 544 1083 560 M 1124 560 L 1124 576 1132.750 575.996 C 1145.962 575.991, 1151.988 571.181, 1151.996 560.636 C 1152.005 549.638, 1145.267 544, 1132.114 544 L 1124 544 1124 560 M 1257.440 545.296 C 1257.166 546.009, 1257.068 553.096, 1257.221 561.046 C 1257.494 575.177, 1257.550 575.507, 1259.750 575.820 C 1261.967 576.134, 1262 575.977, 1262 565.070 C 1262 558.833, 1262.410 554, 1262.939 554 C 1263.456 554, 1267.164 558.950, 1271.180 565 C 1277.538 574.579, 1278.837 576, 1281.240 576 L 1284 576 1284 560 L 1284 544 1281.500 544 L 1279 544 1279 554.583 C 1279 561.119, 1278.622 565.039, 1278.011 564.833 C 1277.076 564.518, 1274.840 561.531, 1266.347 549.250 C 1262.701 543.977, 1258.638 542.173, 1257.440 545.296 M 1305.500 545 C 1304.359 546.847, 1306.089 548, 1310 548 C 1312.135 548, 1314.238 548.563, 1314.672 549.250 C 1315.107 549.938, 1315.509 556.125, 1315.565 563 C 1315.665 575.322, 1315.700 575.500, 1317.951 575.500 C 1320.215 575.500, 1320.233 575.394, 1320.065 563.166 C 1319.871 549.165, 1320.337 548, 1326.122 548 C 1329.333 548, 1330 547.656, 1330 546 C 1330 544.112, 1329.333 544, 1318.059 544 C 1311.177 544, 1305.856 544.424, 1305.500 545 M 1434 560 L 1434 576 1445.073 576 C 1455.080 576, 1456.114 575.831, 1455.813 574.250 C 1455.538 572.808, 1454.197 572.448, 1448.198 572.205 C 1441.348 571.928, 1440.857 571.753, 1439.903 569.244 C 1439.345 567.778, 1439.148 565.548, 1439.464 564.289 C 1439.988 562.198, 1440.599 562, 1446.519 562 C 1452.333 562, 1453 561.794, 1453 560 C 1453 558.297, 1452.294 557.982, 1448.250 557.882 C 1445.638 557.816, 1443.115 557.832, 1442.645 557.917 C 1441.015 558.209, 1439 555.745, 1439 553.459 C 1439 548.476, 1439.750 548, 1447.607 548 C 1454.333 548, 1455 547.820, 1455 546 C 1455 544.127, 1454.333 544, 1444.500 544 L 1434 544 1434 560 M 1475.995 545.180 C 1475.990 546.278, 1479.683 556.435, 1483.018 564.500 C 1483.472 565.600, 1484.625 568.661, 1485.578 571.302 C 1487.180 575.739, 1487.542 576.081, 1490.346 575.802 C 1492.979 575.540, 1493.597 574.872, 1495.012 570.762 C 1495.909 568.156, 1496.948 565.719, 1497.321 565.345 C 1497.695 564.972, 1498 564.078, 1498 563.358 C 1498 562.639, 1499.337 559.130, 1500.972 555.562 C 1505.515 545.642, 1505.756 544, 1502.667 544 C 1501.265 544, 1499.844 544.444, 1499.508 544.987 C 1498.595 546.464, 1492.848 562.161, 1492.267 564.765 C 1491.193 569.574, 1490.022 568.624, 1487.009 560.500 C 1486.601 559.400, 1485.697 557.150, 1485 555.500 C 1484.303 553.850, 1483.290 551.375, 1482.750 550 C 1482.210 548.625, 1481.437 546.825, 1481.032 546 C 1480.085 544.071, 1476.002 543.407, 1475.995 545.180 M 1526 560.034 L 1526 576.068 1536.750 575.784 C 1545.513 575.552, 1547.500 575.223, 1547.500 574 C 1547.500 572.821, 1545.843 572.438, 1539.759 572.208 C 1531.382 571.892, 1530.301 570.967, 1531.167 564.852 C 1531.474 562.683, 1532.026 562.477, 1538.250 562.204 C 1544.156 561.946, 1545 561.667, 1545 559.973 C 1545 557.658, 1541.392 556.512, 1536.564 557.296 C 1532.796 557.907, 1531 556.644, 1531 553.382 C 1531 548.484, 1531.774 548, 1539.607 548 C 1546.333 548, 1547 547.820, 1547 546 C 1547 544.127, 1546.333 544, 1536.500 544 L 1526 544 1526 560.034 M 1570 560 L 1570 576 1572.500 576 C 1574.889 576, 1575 575.733, 1575 570 C 1575 564.065, 1575.031 564, 1577.860 564 C 1580.281 564, 1581.239 564.881, 1584.110 569.750 C 1587.007 574.663, 1587.975 575.546, 1590.765 575.815 L 1594.031 576.129 1590.046 569.827 L 1586.062 563.526 1588.499 561.513 C 1593.674 557.239, 1593.907 549.494, 1588.966 545.976 C 1586.752 544.399, 1584.555 544, 1578.096 544 L 1570 544 1570 560 M 1612 544.570 C 1612 544.883, 1613.267 547.021, 1614.815 549.320 C 1622.053 560.071, 1623.437 563.298, 1623.469 569.500 C 1623.499 575.225, 1623.615 575.500, 1626 575.500 C 1628.377 575.500, 1628.527 575.155, 1629.045 568.500 C 1629.505 562.582, 1630.252 560.381, 1633.876 554.259 C 1636.234 550.276, 1638.576 546.762, 1639.081 546.450 C 1640.927 545.309, 1639.929 544, 1637.213 544 C 1634.833 544, 1633.880 544.949, 1630.688 550.500 C 1628.631 554.075, 1626.549 557, 1626.061 557 C 1625.572 557, 1623.536 554.075, 1621.537 550.500 C 1618.344 544.790, 1617.544 544, 1614.951 544 C 1613.328 544, 1612 544.256, 1612 544.570 M 1689 560 L 1689 576 1699 576 C 1708.259 576, 1709 575.855, 1709 574.044 C 1709 572.309, 1708.179 572.054, 1701.750 571.794 L 1694.500 571.500 1694.222 557.750 L 1693.944 544 1691.472 544 L 1689 544 1689 560 M 1730 559.934 L 1730 576 1732.500 576 L 1735 576 1735 561 C 1735 552.750, 1735.014 545.663, 1735.031 545.250 C 1735.048 544.837, 1733.923 544.358, 1732.531 544.184 L 1730 543.867 1730 559.934 M 1756 545.945 C 1756 547.556, 1756.816 547.943, 1760.750 548.195 L 1765.500 548.500 1765.778 562.250 L 1766.056 576 1768.528 576 L 1771 576 1771 562.607 C 1771 547.845, 1770.930 548, 1777.582 548 C 1780.333 548, 1781 547.610, 1781 546 C 1781 544.107, 1780.333 544, 1768.500 544 C 1756.784 544, 1756 544.122, 1756 545.945 M 1799 546 C 1799 547.662, 1799.667 548, 1802.941 548 C 1805.109 548, 1807.238 548.563, 1807.673 549.250 C 1808.108 549.938, 1808.472 556.125, 1808.482 563 L 1808.500 575.500 1811.250 575.816 L 1814 576.133 1814 562.673 C 1814 547.838, 1813.927 548, 1820.582 548 C 1823.333 548, 1824 547.610, 1824 546 C 1824 544.107, 1823.333 544, 1811.500 544 C 1799.667 544, 1799 544.107, 1799 546 M 1844 559.875 C 1844 568.679, 1844.338 576.029, 1844.750 576.208 C 1845.162 576.387, 1849.662 576.382, 1854.750 576.196 C 1863.026 575.894, 1864 575.660, 1864 573.973 C 1864 572.326, 1863.082 572.050, 1856.750 571.794 L 1849.500 571.500 1849.390 558 L 1849.280 544.500 1846.640 544.184 L 1844 543.867 1844 559.875 M 1885 560 L 1885 576 1895.500 576 C 1905.258 576, 1906 575.862, 1906 574.042 C 1906 572.292, 1905.178 572.053, 1898.250 571.792 L 1890.500 571.500 1890.500 567 L 1890.500 562.500 1897.250 562.204 C 1903.122 561.947, 1904 561.660, 1904 560 C 1904 558.340, 1903.122 558.053, 1897.250 557.796 L 1890.500 557.500 1890.500 553 L 1890.500 548.500 1898.250 548.208 C 1905.178 547.947, 1906 547.708, 1906 545.958 C 1906 544.138, 1905.258 544, 1895.500 544 L 1885 544 1885 560 M 1956 560.066 L 1956 576.133 1958.750 575.816 L 1961.500 575.500 1961.445 565.732 C 1961.383 554.508, 1962.199 553.934, 1965.949 562.561 C 1969.791 571.400, 1970.875 573, 1973.022 573 C 1974.333 573, 1975.483 571.771, 1976.529 569.250 C 1980.198 560.408, 1982.410 556, 1983.178 556 C 1983.630 556, 1984 560.500, 1984 566 L 1984 576 1986.500 576 L 1989 576 1989 560 L 1989 544 1985.750 544.001 C 1982.817 544.003, 1982.280 544.491, 1980.250 549.001 C 1979.013 551.751, 1976.987 556.249, 1975.750 558.999 C 1974.513 561.748, 1973.162 563.998, 1972.748 563.999 C 1972.335 563.999, 1969.885 559.500, 1967.304 554 C 1962.751 544.296, 1962.514 544, 1959.306 544 L 1956 544 1956 560.066 M 2066 560 L 2066 576 2068.500 576 L 2071 576 2071 565.286 C 2071 553.019, 2071.665 552.862, 2076.461 564 C 2078 567.575, 2079.949 571.291, 2080.792 572.258 C 2083.038 574.835, 2084.988 572.660, 2089.109 562.981 C 2090.974 558.601, 2092.838 555.013, 2093.250 555.008 C 2093.662 555.004, 2094 559.725, 2094 565.500 L 2094 576 2096.500 576 L 2099 576 2099 560 L 2099 544 2095.750 544.018 C 2092.600 544.036, 2092.361 544.347, 2088 554.114 C 2085.525 559.656, 2083.226 564.360, 2082.890 564.568 C 2082.555 564.775, 2080.113 560.232, 2077.464 554.472 C 2072.758 544.243, 2072.569 544, 2069.323 544 L 2066 544 2066 560 M 2122 560 L 2122 576 2133 576 C 2143.255 576, 2144 575.867, 2144 574.042 C 2144 572.292, 2143.178 572.053, 2136.250 571.792 L 2128.500 571.500 2128.195 566.750 L 2127.890 562 2134.945 562 C 2141.333 562, 2142 561.811, 2142 560 C 2142 557.953, 2141.625 557.864, 2131.500 557.504 C 2128.635 557.402, 2128.500 557.198, 2128.500 552.977 L 2128.500 548.557 2135.942 548.253 C 2144.130 547.919, 2144.515 547.784, 2143.655 545.543 C 2143.173 544.287, 2141.101 544, 2132.531 544 L 2122 544 2122 560 M 2166 560 L 2166 576 2168.500 576 L 2171 576 2171 564.878 C 2171 551.693, 2170.759 551.664, 2180.559 566.014 C 2186.474 574.676, 2187.752 576, 2190.190 576 L 2193 576 2193 560 L 2193 544 2190.500 544 L 2188 544 2188 555 C 2188 561.050, 2187.662 565.989, 2187.250 565.976 C 2186.838 565.962, 2183.236 561.012, 2179.246 554.976 C 2172.695 545.065, 2171.701 544, 2168.996 544 L 2166 544 2166 560 M 2214 546 C 2214 547.610, 2214.667 548, 2217.418 548 C 2224.070 548, 2224 547.845, 2224 562.607 L 2224 576 2226.500 576 L 2229 576 2229 563.200 C 2229 548.872, 2229.355 548, 2235.200 548 C 2238.333 548, 2239 547.649, 2239 546 C 2239 544.107, 2238.333 544, 2226.500 544 C 2214.667 544, 2214 544.107, 2214 546 M 1039.241 549.325 C 1031.664 553.533, 1031.617 566.682, 1039.165 570.585 C 1043.416 572.783, 1047.201 572.313, 1051.038 569.110 C 1054.306 566.381, 1054.500 565.872, 1054.500 560 C 1054.500 554.128, 1054.306 553.619, 1051.038 550.890 C 1047.283 547.756, 1043.073 547.197, 1039.241 549.325 M 1129.432 549.318 C 1129.154 550.042, 1129.055 555.330, 1129.213 561.068 L 1129.500 571.500 1132.869 571.822 C 1137.144 572.231, 1141.514 570.434, 1144.034 567.230 C 1146.934 563.542, 1146.774 555.074, 1143.750 552.241 C 1139.548 548.304, 1130.527 546.463, 1129.432 549.318 M 1212.225 550.004 C 1208.183 552.469, 1206.677 556.138, 1207.315 561.968 C 1208.786 575.415, 1227.193 575.342, 1228.710 561.883 C 1229.895 551.366, 1220.773 544.793, 1212.225 550.004 M 1359.163 550.848 C 1348.267 561.026, 1360.849 578.455, 1372.614 569.481 C 1374.827 567.793, 1376.138 565.782, 1376.588 563.384 C 1378.769 551.756, 1367.144 543.392, 1359.163 550.848 M 1575.402 549.395 C 1575.108 550.162, 1575.009 552.524, 1575.183 554.645 L 1575.500 558.500 1580.328 558.432 C 1585.435 558.361, 1586.958 557.188, 1586.985 553.307 C 1587.014 549.091, 1576.838 545.654, 1575.402 549.395 M 2021.615 550.088 C 2015.932 554.558, 2014.742 559.990, 2018.126 566.011 C 2024.048 576.547, 2037.891 572.683, 2037.968 560.473 C 2038.031 550.549, 2028.623 544.575, 2021.615 550.088 M 2256.362 571.500 C 2254.952 575.172, 2259.013 578.416, 2261.680 575.748 C 2263.903 573.525, 2262.506 570, 2259.401 570 C 2258.046 570, 2256.678 570.675, 2256.362 571.500" stroke="none" fill="#232a45" fill-rule="evenodd"/>
<path d="M 276.432 23.530 C 232.672 30.365, 193.332 52.317, 168.064 84 C 143.209 115.165, 129.715 147.263, 122.869 191.500 C 121.227 202.109, 121.236 238.890, 122.883 251.500 C 128.411 293.826, 141.975 333.119, 166.475 377.781 C 171.342 386.654, 182.412 404.634, 187.543 412 C 196.192 424.417, 210.004 443.259, 214.946 449.381 C 218.001 453.165, 221.643 457.731, 223.039 459.526 C 229.141 467.371, 233.190 471.210, 234.247 470.153 C 234.995 469.405, 234.572 468.119, 232.817 465.796 C 216.679 444.438, 187.900 396.522, 178.019 374.558 C 176.520 371.226, 174.335 366.404, 173.163 363.842 C 170.467 357.945, 167.275 349.521, 160.339 330 C 139.098 270.223, 135.739 213.382, 150.558 164.500 C 168.367 105.757, 210.771 61.940, 264.307 46.963 C 309.182 34.409, 353.885 39.998, 404.484 64.487 C 434.901 79.208, 464.635 100.596, 494.618 129.321 C 500.462 134.919, 505.808 139.635, 506.499 139.800 C 507.189 139.964, 513.997 135.082, 521.627 128.950 C 545.305 109.922, 574.335 91.432, 599.039 79.646 C 678.513 41.731, 745.718 45.858, 791.586 91.471 C 812.563 112.331, 827.931 143.422, 831.516 172.250 C 832.118 177.095, 832.545 178, 834.230 178 C 836.075 178, 836.179 177.554, 835.569 172.250 C 833.302 152.544, 827.005 130.869, 818.791 114.500 C 799.408 75.871, 770.438 53.102, 728.881 43.833 C 716.381 41.045, 680.985 40.463, 668.500 42.839 C 647.549 46.828, 640.645 48.545, 628.109 52.883 C 604.613 61.014, 578.851 73.841, 560.500 86.545 C 557.200 88.830, 551.876 92.513, 548.668 94.729 C 542.188 99.209, 536.326 103.874, 519.145 118.230 C 512.740 123.582, 507.242 127.969, 506.926 127.980 C 506.610 127.991, 500.742 122.263, 493.885 115.250 C 487.028 108.238, 477.543 99.125, 472.807 95 C 429.562 57.337, 388.325 35.136, 344.500 25.924 C 325.862 22.006, 293.481 20.867, 276.432 23.530 M 1757.643 199.096 C 1753.294 200.296, 1752.060 201.783, 1738.962 221.598 C 1728.297 237.732, 1726.472 240.002, 1724.149 240.018 C 1721.699 240.035, 1713.565 241.366, 1700 243.967 C 1690.328 245.822, 1669.612 252.090, 1666.195 254.195 C 1663.600 255.794, 1662.955 256.797, 1663.195 258.866 C 1663.593 262.300, 1665.096 262.198, 1680.902 257.656 C 1692.077 254.445, 1701.976 252.425, 1716.469 250.401 L 1721.438 249.707 1719.765 252.104 C 1713.124 261.612, 1689.705 306.183, 1682.775 322.500 C 1677.871 334.048, 1676.299 336.423, 1665 349.362 C 1661.455 353.421, 1644.609 367.725, 1638.655 371.732 C 1621.435 383.320, 1605.711 384.425, 1601.498 374.342 C 1599.341 369.179, 1599.612 358.475, 1602.105 350.355 C 1604.787 341.619, 1605.009 341.383, 1611.267 340.591 C 1631.421 338.040, 1654.615 323.421, 1662.041 308.590 C 1666.357 299.970, 1665.926 294.187, 1660.569 288.838 C 1648.084 276.371, 1618.267 291.935, 1599.910 320.500 C 1595.641 327.143, 1592.544 332.337, 1590.981 335.473 C 1590.167 337.108, 1583.650 344.349, 1576.500 351.565 C 1560.241 367.972, 1547.700 376.524, 1533.882 380.628 C 1519.447 384.915, 1511.066 372.521, 1515.876 354 C 1519.130 341.471, 1519.214 341.341, 1524.678 340.552 C 1540.061 338.329, 1558.465 329.619, 1567.968 320.066 C 1579.936 308.035, 1583.520 295.079, 1576.950 287.596 C 1563.999 272.846, 1535.384 288.231, 1513.555 321.680 C 1510.949 325.673, 1510.547 325.889, 1504.527 326.534 C 1494.127 327.648, 1488.178 325.248, 1483.386 318.007 L 1480.691 313.935 1483.348 306.091 C 1486.876 295.669, 1487.099 287.798, 1483.958 284.456 C 1481.392 281.723, 1480.197 281.498, 1476.712 283.085 C 1472 285.232, 1470.542 289.474, 1470 302.611 C 1469.501 314.687, 1469.486 314.749, 1464.686 324.288 C 1455.840 341.867, 1439.597 365.548, 1430.862 373.599 C 1419.716 383.872, 1415.830 381.921, 1415.905 366.089 C 1415.963 353.817, 1419.570 339.578, 1429.658 311.785 C 1432.596 303.692, 1435 296.180, 1435 295.092 C 1435 290.950, 1427.558 288.501, 1423.751 291.391 C 1422.789 292.122, 1420.199 296.720, 1417.994 301.610 C 1411.538 315.934, 1408.786 320.808, 1399.990 333.500 C 1382.229 359.130, 1364.178 379, 1358.656 379 C 1352.216 379, 1365.628 336.673, 1383.126 301.772 C 1387.718 292.613, 1387.800 291.774, 1384.365 289.073 C 1381.216 286.595, 1378.251 286.436, 1375.192 288.578 C 1372.589 290.401, 1363.862 307.439, 1358.903 320.380 C 1357.031 325.264, 1354.329 330.450, 1352.899 331.904 C 1348.512 336.364, 1331.851 343.780, 1319 346.994 C 1316.525 347.613, 1313.779 348.327, 1312.897 348.580 C 1311.837 348.885, 1310.344 347.592, 1308.494 344.771 C 1306.955 342.422, 1302.051 336.762, 1297.598 332.193 C 1287.955 322.301, 1285.630 318.283, 1285.617 311.500 C 1285.601 302.766, 1293.845 293.110, 1304.921 288.891 C 1317.277 284.184, 1324.365 285.650, 1323.939 292.825 C 1323.619 298.203, 1323.830 299, 1325.577 299 C 1328.659 299, 1333 293.433, 1333 289.481 C 1333 273.698, 1308.250 271.076, 1287.734 284.686 C 1276.833 291.918, 1272.060 299.892, 1272.022 310.934 C 1271.992 319.729, 1274.439 324.336, 1284.442 334.320 C 1292.801 342.663, 1298 348.926, 1298 350.651 C 1298 351.181, 1293.838 352.660, 1288.750 353.939 C 1254.638 362.514, 1236.073 374.916, 1238.443 387.548 C 1241.972 406.360, 1283.986 406.124, 1304.242 387.177 C 1312.090 379.836, 1314.466 374.343, 1314.485 363.500 C 1314.500 354.654, 1314.543 354.495, 1317 354.190 C 1321.397 353.644, 1339.335 347.830, 1344.250 345.356 C 1346.862 344.042, 1349 343.163, 1349 343.403 C 1349 343.643, 1347.835 348.676, 1346.410 354.586 C 1340.937 377.297, 1343.916 390, 1354.714 390 C 1360.480 390, 1365.564 387.275, 1373.300 380.038 C 1379.943 373.824, 1392.628 358.143, 1400.025 347 C 1405.429 338.861, 1406.471 337.743, 1405.616 341 C 1402.209 353.992, 1401.093 370.512, 1403.088 378.436 C 1406.109 390.434, 1416.318 394.541, 1428.045 388.477 C 1433.168 385.828, 1446.635 371.674, 1453.990 361.210 C 1459.224 353.763, 1474.784 326.850, 1476.354 322.530 C 1476.560 321.963, 1477.702 322.711, 1478.891 324.192 C 1482.899 329.181, 1491.472 333.229, 1499.200 333.782 C 1504.993 334.197, 1506.081 334.550, 1505.689 335.890 C 1499.663 356.501, 1499.760 355.980, 1500.199 365.325 C 1500.691 375.794, 1502.673 380.750, 1508.372 385.754 C 1511.844 388.802, 1520.523 392, 1525.323 392 C 1529.636 392, 1540.225 388.900, 1546.739 385.729 C 1554.179 382.108, 1571.195 368.753, 1579.321 360.157 C 1582.522 356.771, 1585.222 354, 1585.321 354.001 C 1585.419 354.001, 1585.511 358.839, 1585.525 364.751 C 1585.547 373.893, 1585.883 376.128, 1587.769 379.698 C 1590.098 384.104, 1596.160 388.885, 1601.899 390.841 C 1616.274 395.741, 1639.106 384.987, 1662.921 362.101 C 1671.375 353.978, 1673.236 352.827, 1670.909 357.164 C 1669.101 360.532, 1668.463 379.012, 1669.969 384.390 C 1672.751 394.327, 1680.761 399.941, 1692.212 399.978 C 1707.061 400.027, 1721.144 391.089, 1740.544 369.305 C 1755.004 353.068, 1759.311 344.500, 1753.014 344.500 C 1751.116 344.500, 1749.382 346.039, 1745.692 351 C 1732.621 368.573, 1711.612 386.048, 1699.837 389.143 C 1693.882 390.708, 1687.768 389.102, 1685.291 385.321 C 1682.958 381.761, 1683.011 367.960, 1685.396 357.500 C 1689.545 339.306, 1708.028 298.212, 1723.071 273.735 C 1724.682 271.114, 1726 268.760, 1726 268.503 C 1726 268.246, 1727.710 265.215, 1729.800 261.768 C 1731.890 258.320, 1734.363 253.861, 1735.295 251.859 C 1736.228 249.856, 1737.780 247.847, 1738.745 247.394 C 1739.710 246.942, 1748.232 246.523, 1757.683 246.464 C 1775.056 246.355, 1778 245.771, 1778 242.434 C 1778 238.970, 1773.904 238, 1759.277 238 C 1751.425 238, 1745 237.748, 1745 237.440 C 1745 237.132, 1749.725 229.692, 1755.500 220.907 C 1761.275 212.121, 1766 204.103, 1766 203.089 C 1766 199.762, 1762.057 197.877, 1757.643 199.096 M 2329.374 273.985 C 2325.275 275.640, 2320.299 281.920, 2318.451 287.768 C 2313.074 304.787, 2320.584 326.816, 2340.280 351.795 C 2343.010 355.257, 2345.076 358.244, 2344.872 358.433 C 2344.045 359.197, 2323.946 365.284, 2314.543 367.617 C 2275.559 377.293, 2258.194 386.188, 2218.675 416.726 C 2216.379 418.500, 2213.938 419.962, 2213.250 419.976 C 2212.563 419.989, 2212 421.035, 2212 422.300 C 2212 423.565, 2211.468 425.132, 2210.817 425.783 C 2210.166 426.434, 2209.882 427.215, 2210.186 427.519 C 2210.489 427.823, 2219.684 422.268, 2230.619 415.176 C 2259.439 396.483, 2275.432 388.819, 2304 380.009 C 2324.602 373.655, 2340.526 368.233, 2345.633 365.833 C 2348.621 364.428, 2350.678 363.988, 2351.475 364.582 C 2352.151 365.087, 2356.034 368.011, 2360.103 371.081 C 2377.848 384.468, 2392.092 390.507, 2415.196 394.441 C 2433.211 397.508, 2444 397.591, 2444 394.663 C 2444 393.834, 2439.936 392.823, 2431.857 391.643 C 2410.429 388.512, 2385.141 378.496, 2368.500 366.547 C 2364.100 363.387, 2360.132 360.456, 2359.681 360.033 C 2359.231 359.609, 2362.559 356.673, 2367.077 353.507 C 2395.306 333.726, 2409.184 303.171, 2396.378 288.996 C 2388.333 280.092, 2375.973 281.691, 2365.153 293.035 L 2360.469 297.946 2358.186 292.059 C 2352.850 278.299, 2339.473 269.907, 2329.374 273.985 M 2332.772 285.537 C 2328.943 287.648, 2326.531 296.135, 2327.450 304.258 C 2328.249 311.321, 2331.890 321.951, 2336.628 331.051 C 2340.679 338.833, 2352.420 354, 2354.392 354 C 2356.749 354, 2367.162 345.690, 2374.223 338.175 C 2387.154 324.413, 2394.928 302.439, 2389.057 296.250 C 2383.244 290.124, 2371.955 295.742, 2364.556 308.442 C 2362.387 312.165, 2359.955 315.464, 2359.151 315.772 C 2357.125 316.550, 2354 312.396, 2354 308.927 C 2354 305.043, 2350.286 295.222, 2347.307 291.229 C 2342.808 285.199, 2337.298 283.042, 2332.772 285.537 M 1559.500 293.227 C 1550.843 296.313, 1535.532 311.765, 1527.755 325.264 C 1525.145 329.794, 1523.008 333.813, 1523.005 334.196 C 1522.996 335.420, 1533.265 332.036, 1540.500 328.431 C 1554.811 321.301, 1567.214 308.426, 1568.586 299.277 C 1569.602 292.500, 1566.791 290.628, 1559.500 293.227 M 1647 294.003 C 1637.349 296.688, 1622.761 310.009, 1614.194 323.958 C 1611.337 328.610, 1609 332.969, 1609 333.645 C 1609 335.020, 1623.577 330.462, 1629.223 327.323 C 1643.889 319.166, 1657.296 301.358, 1653.235 295.427 C 1652.103 293.774, 1649.751 293.237, 1647 294.003 M 1292.500 360.121 C 1268.870 366.553, 1255.757 372.521, 1251.505 378.779 C 1247.177 385.147, 1248.664 388.752, 1256.500 390.895 C 1270.617 394.755, 1291.170 385.387, 1298.014 371.973 C 1300.232 367.625, 1301.894 357.925, 1300.389 358.108 C 1299.900 358.167, 1296.350 359.073, 1292.500 360.121 M 1540 434.765 C 1532.324 438.939, 1527.722 450.476, 1529.418 461.294 C 1531.786 476.408, 1543.835 496.017, 1560.623 512.080 C 1570.806 521.823, 1572.325 522.664, 1575.750 520.461 C 1585.253 514.350, 1604.207 492.670, 1611.329 479.768 C 1619.854 464.322, 1620.291 448.049, 1612.373 440.909 C 1603.244 432.678, 1591.408 434.827, 1579.593 446.859 L 1573.687 452.874 1571.819 449.187 C 1565.360 436.441, 1549.847 429.410, 1540 434.765 M 1544.503 446.250 C 1538.332 451.574, 1539.554 466.256, 1547.396 481 C 1553.636 492.734, 1563.758 506.751, 1570.633 513.181 L 1573.500 515.863 1579.876 508.509 C 1597.849 487.779, 1607 470.544, 1607 457.420 C 1607 441.830, 1591.986 444.140, 1578.853 461.750 C 1576.699 464.637, 1574.284 467, 1573.485 467 C 1572.687 467, 1570.837 464.637, 1569.375 461.750 C 1565.548 454.193, 1562.117 450.036, 1557.054 446.822 C 1551.686 443.414, 1547.986 443.246, 1544.503 446.250 M 1183.500 463.081 C 1110.273 465.171, 1059.797 468.357, 994 475.040 C 977.397 476.727, 941.232 481.247, 930 483.039 C 915.790 485.306, 882.240 491.002, 878 491.868 C 854.813 496.601, 825.701 504.656, 821.258 507.567 C 816.239 510.855, 820.316 511.316, 831.149 508.684 C 842.724 505.872, 878.361 499.816, 900 496.984 C 904.675 496.372, 911.650 495.460, 915.500 494.957 C 925.793 493.613, 948.054 491.011, 966.500 488.997 C 972 488.397, 980.100 487.495, 984.500 486.992 C 991.903 486.148, 997.216 485.675, 1029 483.031 C 1040.500 482.075, 1057.614 480.796, 1083 478.995 C 1099.924 477.794, 1129.127 476.307, 1161.500 474.998 C 1175.250 474.442, 1197.075 473.540, 1210 472.992 C 1270.799 470.417, 1375.279 470.689, 1474.750 473.680 C 1488.928 474.107, 1495 473.966, 1495 473.212 C 1495 471.116, 1490.451 470.591, 1454 468.484 C 1348.278 462.374, 1265.904 460.729, 1183.500 463.081 M 1837 464.248 C 1836.725 464.510, 1821.650 465.012, 1803.500 465.364 C 1761.536 466.179, 1702.335 468.572, 1676.408 470.504 C 1665.358 471.327, 1655.570 472, 1654.658 472 C 1653.746 472, 1653 472.727, 1653 473.615 C 1653 475.064, 1654.782 475.167, 1670.250 474.617 C 1752.041 471.705, 1971.821 473.577, 2062 477.953 C 2121.454 480.838, 2131.831 481.416, 2171 484.033 C 2200.617 486.012, 2245.801 490.177, 2279.750 494.057 C 2284.287 494.576, 2291.713 495.424, 2296.250 495.943 C 2309.760 497.488, 2327.896 499.920, 2337.500 501.476 C 2342.450 502.278, 2352.306 503.873, 2359.402 505.021 C 2366.497 506.169, 2376.559 507.983, 2381.762 509.054 C 2393.059 511.378, 2394 511.419, 2394 509.580 C 2394 505.211, 2328.636 490.838, 2278 484.073 C 2249.266 480.235, 2224.891 477.398, 2208 475.927 C 2181.766 473.643, 2174.083 473.008, 2160.750 472.019 C 2129.545 469.706, 2117.383 468.954, 2095.500 467.982 C 2082.850 467.421, 2063.275 466.494, 2052 465.923 C 2031.284 464.872, 1837.925 463.366, 1837 464.248" stroke="none" fill="#ef3f74" fill-rule="evenodd"/>
</svg>
